<svg width="100" height="100" viewBox="0 0 100 100" fill="none" xmlns="http://www.w3.org/2000/svg">
<ellipse cx="50.159" cy="51.6377" rx="49.0653" ry="48.3623" fill="url(#paint0_radial_561_13)"/>
<g clip-path="url(#clip0_561_13)">
<path d="M50.1584 17.2466V86.0286M85.0493 51.6376H15.2676M75.1817 51.6376C75.1817 38.0209 63.984 26.9728 50.1584 26.9728C36.3329 26.9728 25.1352 38.0101 25.1352 51.6376C25.1352 65.265 36.3329 76.3024 50.1584 76.3024C63.984 76.3024 75.1817 65.265 75.1817 51.6376Z" stroke="#1F1F1F" stroke-width="2" stroke-miterlimit="10"/>
</g>
<path d="M13.3436 25.7265C11.7994 27.4364 10.6049 27.9953 9.41752 27.0067L10.1628 26.1814C10.8423 26.7776 11.5895 26.4754 12.7423 25.1989C13.7449 24.0886 13.9767 23.4619 13.4656 23.0135C12.9605 22.5703 12.5773 22.8513 11.3457 24.048L11.1132 24.2697C9.52037 25.8305 8.65816 26.1169 7.79222 25.3572C6.94431 24.6132 7.31807 23.4832 8.65316 22.0049C10.1008 20.4018 11.3111 20.0164 12.3248 20.8632L11.5849 21.6826C10.9174 21.0969 10.1821 21.5053 9.19553 22.5978C8.2733 23.619 8.09316 24.1527 8.53214 24.5378C9.03127 24.9757 9.46122 24.7145 10.5963 23.6246L10.8396 23.3911C12.2936 21.9958 13.1592 21.2761 14.1815 22.173C15.1917 23.0594 14.6894 24.2362 13.3436 25.7265Z" fill="black"/>
<path d="M19.253 20.155C17.5404 21.4843 15.5943 21.4962 14.4607 20.0774C13.3322 18.6649 13.8102 16.8155 15.5228 15.4861C17.0522 14.299 18.7913 14.1946 19.7429 15.1166L18.8518 15.8083C18.325 15.3667 17.1804 15.3437 16.0871 16.1924C14.8484 17.1538 14.5852 18.4518 15.3392 19.3956C16.0982 20.3456 17.4451 20.4039 18.6837 19.4425C19.777 18.5938 20.0178 17.4855 19.7007 16.8708L20.5918 16.1792C21.2943 17.3148 20.7823 18.9679 19.253 20.155Z" fill="black"/>
<path d="M23.6822 16.6544L20.9523 11.6825L24.7851 9.63795C26.1121 8.93007 27.0066 9.09662 27.5187 10.0293C27.8806 10.6885 27.767 11.3293 27.1786 11.8698C27.7972 11.5671 28.3882 11.696 28.7116 12.2851L29.4278 13.5894L28.489 14.0902L27.846 12.9191C27.5996 12.4703 27.2698 12.4015 26.818 12.6424L23.6346 14.3406L24.628 16.1498L23.6822 16.6544ZM23.2111 13.5692L25.9004 12.1346C26.6627 11.728 26.945 11.2782 26.6139 10.6751C26.2866 10.0791 25.7694 10.1011 25.0071 10.5077L22.3178 11.9423L23.2111 13.5692Z" fill="black"/>
<path d="M34.5271 11.7816C32.346 12.4988 30.5757 11.8347 29.9935 10.1145C29.4138 8.40198 30.4301 6.8383 32.6112 6.12105C34.7847 5.40631 36.5524 6.06289 37.1295 7.76788C37.7117 9.48801 36.7006 11.0668 34.5271 11.7816ZM31.0498 9.76716C31.4474 10.9417 32.6692 11.4326 34.2347 10.9177C35.7926 10.4054 36.4758 9.27972 36.0808 8.11275C35.6883 6.95336 34.4665 6.46252 32.901 6.97733C31.3355 7.49215 30.6574 8.60777 31.0498 9.76716Z" fill="black"/>
<path d="M39.9197 10.0008L39.0694 4.39288L40.13 4.23666L40.8435 8.94288L45.062 8.32151L45.1987 9.2232L39.9197 10.0008Z" fill="black"/>
<path d="M46.9297 9.00803L47.0128 3.33664L48.0847 3.35191L48.015 8.1114L52.2785 8.17213L52.2652 9.08403L46.9297 9.00803Z" fill="black"/>
<path d="M57.1532 4.68841L57.351 3.79811L63.7477 5.17884L63.5499 6.06913L60.8755 5.49186L59.8431 10.1386L58.8031 9.91407L59.8354 5.26737L57.1532 4.68841Z" fill="black"/>
<path d="M67.686 12.6303C65.5557 11.7738 64.6501 10.1337 65.3444 8.45572C66.0357 6.78509 67.8406 6.25191 69.9709 7.10832C72.0938 7.96174 73.0025 9.59446 72.3143 11.2577C71.6199 12.9357 69.8089 13.4837 67.686 12.6303ZM66.3762 8.87049C65.9021 10.0163 66.5057 11.1728 68.0347 11.7876C69.5564 12.3993 70.8189 11.9843 71.29 10.8459C71.7579 9.7149 71.1543 8.55834 69.6253 7.94363C68.0962 7.32893 66.8442 7.73949 66.3762 8.87049Z" fill="black"/>
<path d="M77.3459 11.6453L77.8646 10.8951L83.297 14.5438L82.7783 15.294L80.5071 13.7685L77.8003 17.684L76.917 17.0907L79.6238 13.1753L77.3459 11.6453Z" fill="black"/>
<path d="M83.9449 22.742C82.298 21.1423 82.0849 19.285 83.3689 18.0007C84.6471 16.7221 86.5231 16.9161 88.1701 18.5158C89.8113 20.11 90.03 21.9617 88.7574 23.2346C87.4734 24.5189 85.5862 24.3362 83.9449 22.742ZM84.1665 18.7755C83.2898 19.6524 83.4076 20.9488 84.5897 22.0971C85.7662 23.2397 87.0944 23.3367 87.9655 22.4654C88.8309 21.5998 88.7131 20.3034 87.5309 19.1551C86.3488 18.0069 85.0319 17.9099 84.1665 18.7755Z" fill="black"/>
<path d="M87.9832 26.5404L92.7044 23.3968L95.0199 26.7755C95.8024 27.9171 95.6561 29.062 94.604 29.7626C93.5585 30.4587 92.4196 30.1695 91.6372 29.0279L89.9277 26.5335L88.5892 27.4247L87.9832 26.5404ZM90.6801 26.0324L92.263 28.3421C92.7379 29.035 93.3206 29.2909 93.9798 28.8519C94.6391 28.413 94.6091 27.789 94.1342 27.0962L92.5513 24.7865L90.6801 26.0324Z" fill="black"/>
<defs>
<radialGradient id="paint0_radial_561_13" cx="0" cy="0" r="1" gradientUnits="userSpaceOnUse" gradientTransform="translate(50.159 51.6377) rotate(90) scale(48.3623 49.0653)">
<stop stop-color="#C7C7C6" stop-opacity="0"/>
<stop offset="0.560764" stop-color="#FFA7D1"/>
<stop offset="1" stop-color="#C7C7C6" stop-opacity="0"/>
</radialGradient>
<clipPath id="clip0_561_13">
<rect width="69.7817" height="68.782" fill="white" transform="translate(15.2676 17.2466)"/>
</clipPath>
</defs>
</svg>
