<svg width="24" height="25" viewBox="0 0 24 25" fill="none" xmlns="http://www.w3.org/2000/svg">
<path d="M4.86477 8.5432C4.86477 9.37715 5.54082 10.0532 6.37477 10.0532C7.20872 10.0532 7.88477 9.37715 7.88477 8.5432C7.88477 7.70925 7.20872 7.0332 6.37477 7.0332C5.54082 7.0332 4.86477 7.70925 4.86477 8.5432Z" fill="#222221"/>
<path d="M4.86477 16.5627C4.86477 17.3967 5.54082 18.0727 6.37477 18.0727C7.20872 18.0727 7.88477 17.3967 7.88477 16.5627C7.88477 15.7288 7.20872 15.0527 6.37477 15.0527C5.54082 15.0527 4.86477 15.7288 4.86477 16.5627Z" fill="#222221"/>
<g clip-path="url(#clip0_150_381)">
<path d="M14.8848 4.57812H12.8848V20.5281H14.8848V4.57812Z" fill="#222221"/>
<path d="M19.1348 4.57812H17.1348V20.5281H19.1348V4.57812Z" fill="#222221"/>
</g>
<defs>
<clipPath id="clip0_150_381">
<rect width="6.25" height="15.95" fill="white" transform="translate(12.8848 4.57812)"/>
</clipPath>
</defs>
</svg>
