<svg width="1027" height="86" viewBox="0 0 1027 86" fill="none" xmlns="http://www.w3.org/2000/svg">
<path d="M11.77 75.12C3.92 67.93 0 57.4 0 43.54V1.5H22.86V42.73C22.86 49.7 24.82 55.42 28.72 59.9C32.63 64.38 39.48 66.62 49.28 66.62C59.08 66.62 65.82 64.38 69.73 59.9C73.64 55.42 75.59 49.7 75.59 42.73V1.5H98.45V43.54C98.45 57.32 94.52 67.83 86.68 75.07C78.83 82.31 66.37 85.93 49.29 85.93C32.21 85.93 19.63 82.33 11.79 75.13" fill="black"/>
<path d="M112.34 1.48999H147.72L176.89 58.12L206.07 1.48999H241.33V83.62H218.47V23.09L187.57 83.62H166.33L135.2 22.86V83.62H112.34V1.48999Z" fill="black"/>
<path d="M315.53 43.08C320.43 43.08 324.07 42.22 326.44 40.5C328.81 38.78 330 35.89 330 31.83C330 27.77 328.82 24.92 326.44 23.27C324.06 21.63 320.43 20.8 315.53 20.8H281.19V43.08H315.53ZM258.33 1.48999H320.82C331 1.48999 339.03 4.18999 344.88 9.58999C350.74 14.98 353.67 22.39 353.67 31.82C353.67 41.25 350.75 48.76 344.88 54.16C339.02 59.56 331 62.26 320.82 62.26H281.19V83.62H258.33V1.48999Z" fill="black"/>
<path d="M426.369 39.63C431.199 39.63 434.829 38.88 437.279 37.39C439.729 35.9 440.949 33.31 440.949 29.64C440.949 25.97 439.749 23.42 437.329 22C434.919 20.58 431.259 19.87 426.359 19.87H389.029V39.63H426.359H426.369ZM366.189 1.48999H431.669C453.719 1.48999 464.749 9.67999 464.749 26.07C464.749 31.66 463.279 36.29 460.329 39.97C457.389 43.64 453.109 46.29 447.529 47.9C452.729 48.21 456.869 49.8 459.929 52.67C462.989 55.54 464.529 59.43 464.529 64.33V83.62H441.669V68C441.669 64.25 440.939 61.65 439.489 60.19C438.029 58.74 435.429 58.01 431.679 58.01H389.059V83.62H366.199V1.48999H366.189Z" fill="black"/>
<path d="M489.15 75.12C481.3 67.92 477.38 57.39 477.38 43.53V1.5H500.24V42.73C500.24 49.7 502.19 55.42 506.1 59.9C510.01 64.38 516.86 66.62 526.66 66.62C536.46 66.62 543.2 64.38 547.11 59.9C551.02 55.42 552.97 49.7 552.97 42.73V1.5H575.83V43.54C575.83 57.32 571.9 67.83 564.06 75.07C556.21 82.31 543.75 85.93 526.67 85.93C509.59 85.93 497.01 82.33 489.17 75.13" fill="black"/>
<path d="M589.72 1.48999H625.1L654.27 58.12L683.45 1.48999H718.71V83.62H695.85V23.09L664.95 83.62H643.7L612.57 22.86V83.62H589.72V1.48999Z" fill="black"/>
<path d="M737.08 78.24C737.08 76.73 737.61 75.43 738.66 74.36C739.72 73.28 740.99 72.74 742.47 72.74C743.95 72.74 745.22 73.28 746.28 74.36C747.34 75.43 747.87 76.73 747.87 78.24C747.87 79.75 747.34 81.05 746.28 82.12C745.22 83.19 743.96 83.74 742.47 83.74C740.98 83.74 739.72 83.2 738.66 82.12C737.6 81.04 737.08 79.75 737.08 78.24Z" fill="black"/>
<path d="M849.769 65.91C849.769 64.41 850.279 63.13 851.319 62.06C852.349 60.99 853.609 60.46 855.109 60.46C856.609 60.46 857.889 60.99 858.949 62.06C860.019 63.13 860.549 64.41 860.549 65.91C860.549 67.41 860.009 68.67 858.949 69.7C857.879 70.73 856.599 71.25 855.109 71.25C853.619 71.25 852.349 70.73 851.319 69.7C850.279 68.67 849.769 67.4 849.769 65.91ZM849.659 53.73C849.659 52.23 850.199 50.97 851.259 49.94C852.329 48.91 853.609 48.39 855.109 48.39C856.609 48.39 857.889 48.91 858.949 49.94C860.019 50.97 860.549 52.23 860.549 53.73C860.549 55.23 860.009 56.5 858.949 57.57C857.879 58.64 856.599 59.17 855.109 59.17C853.619 59.17 852.329 58.64 851.259 57.57C850.189 56.5 849.659 55.22 849.659 53.73ZM849.659 41.66C849.659 40.16 850.199 38.9 851.259 37.87C852.329 36.84 853.609 36.32 855.109 36.32C856.609 36.32 857.869 36.84 858.899 37.87C859.929 38.9 860.449 40.16 860.449 41.66C860.449 43.16 859.929 44.44 858.899 45.5C857.869 46.57 856.599 47.1 855.109 47.1C853.619 47.1 852.329 46.57 851.259 45.5C850.189 44.43 849.659 43.15 849.659 41.66ZM849.659 29.59C849.659 28.1 850.199 26.81 851.259 25.75C852.329 24.68 853.609 24.15 855.109 24.15C856.609 24.15 857.869 24.68 858.899 25.75C859.929 26.82 860.449 28.1 860.449 29.59C860.449 31.08 859.929 32.37 858.899 33.44C857.869 34.5 856.599 35.04 855.109 35.04C853.619 35.04 852.329 34.5 851.259 33.44C850.189 32.37 849.659 31.09 849.659 29.59ZM849.659 17.52C849.659 16.02 850.179 14.74 851.209 13.68C852.239 12.61 853.509 12.08 854.999 12.08C856.489 12.08 857.779 12.61 858.849 13.68C859.919 14.75 860.449 16.03 860.449 17.52C860.449 19.01 859.909 20.3 858.849 21.36C857.779 22.43 856.499 22.97 854.999 22.97C853.499 22.97 852.239 22.43 851.209 21.36C850.179 20.3 849.659 19.01 849.659 17.52ZM849.549 5.45C849.549 3.95 850.089 2.67 851.149 1.61C852.219 0.54 853.499 0 854.989 0C856.479 0 857.769 0.54 858.839 1.61C859.909 2.67 860.439 3.96 860.439 5.45C860.439 6.94 859.899 8.21 858.839 9.24C857.769 10.27 856.489 10.79 854.989 10.79C853.489 10.79 852.209 10.27 851.149 9.24C850.079 8.21 849.549 6.94 849.549 5.45ZM835.769 78.3C835.769 76.81 836.309 75.52 837.369 74.46C838.439 73.39 839.719 72.86 841.219 72.86C842.719 72.86 843.979 73.39 845.009 74.46C846.039 75.53 846.559 76.81 846.559 78.3C846.559 79.79 846.039 81.06 845.009 82.09C843.979 83.12 842.709 83.64 841.219 83.64C839.729 83.64 838.439 83.12 837.369 82.09C836.309 81.06 835.769 79.8 835.769 78.3ZM821.779 78.3C821.779 76.81 822.309 75.54 823.379 74.51C824.449 73.48 825.729 72.96 827.219 72.96C828.709 72.96 829.999 73.48 831.069 74.51C832.139 75.54 832.669 76.81 832.669 78.3C832.669 79.79 832.139 81.08 831.069 82.15C829.999 83.21 828.719 83.75 827.219 83.75C825.719 83.75 824.439 83.21 823.379 82.15C822.309 81.08 821.779 79.8 821.779 78.3ZM807.679 66.02C807.679 64.52 808.219 63.25 809.289 62.18C810.349 61.11 811.639 60.58 813.129 60.58C814.619 60.58 815.909 61.11 816.979 62.18C818.049 63.25 818.579 64.53 818.579 66.02C818.579 67.51 818.049 68.78 816.979 69.81C815.909 70.84 814.629 71.36 813.129 71.36C811.629 71.36 810.349 70.84 809.289 69.81C808.219 68.78 807.679 67.51 807.679 66.02ZM807.679 53.95C807.679 52.45 808.219 51.17 809.289 50.1C810.349 49.03 811.639 48.49 813.129 48.49C814.619 48.49 815.889 49.03 816.919 50.1C817.949 51.17 818.469 52.45 818.469 53.95C818.469 55.45 817.949 56.71 816.919 57.74C815.889 58.77 814.629 59.29 813.129 59.29C811.629 59.29 810.349 58.77 809.289 57.74C808.219 56.71 807.679 55.44 807.679 53.95ZM807.679 41.77C807.679 40.27 808.199 39.01 809.229 37.98C810.259 36.95 811.529 36.43 813.019 36.43C814.509 36.43 815.799 36.95 816.869 37.98C817.939 39.01 818.469 40.28 818.469 41.77C818.469 43.26 817.939 44.55 816.869 45.61C815.799 46.68 814.519 47.22 813.019 47.22C811.519 47.22 810.259 46.68 809.229 45.61C808.199 44.55 807.679 43.26 807.679 41.77ZM807.569 29.7C807.569 28.2 808.109 26.92 809.169 25.86C810.239 24.79 811.519 24.25 813.009 24.25C814.499 24.25 815.789 24.79 816.859 25.86C817.929 26.92 818.459 28.21 818.459 29.7C818.459 31.19 817.929 32.48 816.859 33.54C815.789 34.61 814.509 35.14 813.009 35.14C811.509 35.14 810.229 34.6 809.169 33.54C808.099 32.47 807.569 31.19 807.569 29.7ZM807.569 17.63C807.569 16.13 808.109 14.85 809.169 13.78C810.239 12.72 811.519 12.18 813.009 12.18C814.499 12.18 815.789 12.72 816.859 13.78C817.929 14.85 818.459 16.13 818.459 17.63C818.459 19.13 817.929 20.41 816.859 21.47C815.789 22.54 814.509 23.07 813.009 23.07C811.509 23.07 810.229 22.54 809.169 21.47C808.099 20.4 807.569 19.12 807.569 17.63ZM807.569 5.56C807.569 4.07 808.109 2.78 809.169 1.72C810.239 0.65 811.519 0.12 813.009 0.12C814.499 0.12 815.769 0.65 816.799 1.72C817.829 2.79 818.349 4.07 818.349 5.56C818.349 7.05 817.829 8.32 816.799 9.35C815.769 10.38 814.499 10.9 813.009 10.9C811.519 10.9 810.229 10.38 809.169 9.35C808.099 8.32 807.569 7.06 807.569 5.56ZM794.109 78.09C794.109 76.6 794.629 75.33 795.659 74.3C796.689 73.27 797.959 72.75 799.449 72.75C800.939 72.75 802.229 73.27 803.289 74.3C804.359 75.33 804.889 76.6 804.889 78.09C804.889 79.58 804.359 80.87 803.289 81.94C802.219 83 800.939 83.54 799.449 83.54C797.959 83.54 796.689 83 795.659 81.94C794.629 80.87 794.109 79.59 794.109 78.09ZM779.799 78.41C779.799 76.91 780.339 75.65 781.399 74.62C782.469 73.59 783.749 73.07 785.249 73.07C786.749 73.07 788.009 73.59 789.039 74.62C790.069 75.65 790.589 76.91 790.589 78.41C790.589 79.91 790.069 81.18 789.039 82.25C788.009 83.32 786.739 83.85 785.249 83.85C783.759 83.85 782.469 83.32 781.399 82.25C780.329 81.18 779.799 79.9 779.799 78.41ZM765.809 66.13C765.809 64.63 766.349 63.35 767.409 62.28C768.479 61.21 769.759 60.68 771.259 60.68C772.759 60.68 774.019 61.21 775.049 62.28C776.079 63.35 776.599 64.63 776.599 66.13C776.599 67.63 776.079 68.89 775.049 69.92C774.019 70.95 772.749 71.47 771.259 71.47C769.769 71.47 768.479 70.95 767.409 69.92C766.339 68.89 765.809 67.62 765.809 66.13ZM765.809 54.06C765.809 52.57 766.329 51.29 767.359 50.22C768.389 49.15 769.659 48.62 771.149 48.62C772.639 48.62 773.929 49.15 774.999 50.22C776.069 51.29 776.599 52.57 776.599 54.06C776.599 55.55 776.059 56.82 774.999 57.85C773.929 58.88 772.649 59.4 771.149 59.4C769.649 59.4 768.389 58.88 767.359 57.85C766.329 56.82 765.809 55.56 765.809 54.06ZM765.699 41.89C765.699 40.39 766.239 39.13 767.299 38.1C768.369 37.07 769.649 36.55 771.139 36.55C772.629 36.55 773.919 37.07 774.989 38.1C776.059 39.13 776.589 40.4 776.589 41.89C776.589 43.38 776.049 44.66 774.989 45.73C773.919 46.8 772.639 47.33 771.139 47.33C769.639 47.33 768.359 46.8 767.299 45.73C766.229 44.66 765.699 43.38 765.699 41.89ZM765.699 29.82C765.699 28.33 766.239 27.04 767.299 25.97C768.369 24.9 769.649 24.37 771.139 24.37C772.629 24.37 773.919 24.9 774.989 25.97C776.059 27.04 776.589 28.32 776.589 29.82C776.589 31.32 776.049 32.6 774.989 33.67C773.919 34.73 772.639 35.27 771.139 35.27C769.639 35.27 768.359 34.73 767.299 33.67C766.229 32.6 765.699 31.32 765.699 29.82ZM765.699 17.75C765.699 16.25 766.239 14.97 767.299 13.91C768.369 12.84 769.649 12.31 771.139 12.31C772.629 12.31 773.899 12.84 774.929 13.91C775.959 14.98 776.479 16.26 776.479 17.75C776.479 19.24 775.959 20.53 774.929 21.59C773.899 22.66 772.629 23.2 771.139 23.2C769.649 23.2 768.359 22.66 767.299 21.59C766.229 20.53 765.699 19.24 765.699 17.75ZM765.699 5.68C765.699 4.18 766.219 2.9 767.249 1.84C768.279 0.77 769.549 0.23 771.039 0.23C772.529 0.23 773.819 0.77 774.889 1.84C775.959 2.9 776.489 4.19 776.489 5.68C776.489 7.17 775.959 8.44 774.889 9.47C773.819 10.5 772.539 11.02 771.039 11.02C769.539 11.02 768.279 10.5 767.249 9.47C766.219 8.44 765.699 7.18 765.699 5.68Z" fill="black"/>
<path d="M932.65 78.2999C932.65 76.8099 933.19 75.5399 934.25 74.5099C935.32 73.4799 936.6 72.9599 938.09 72.9599C939.58 72.9599 940.87 73.4799 941.94 74.5099C943.01 75.5399 943.54 76.8099 943.54 78.2999C943.54 79.7899 943.01 81.0799 941.94 82.1499C940.87 83.2099 939.59 83.7499 938.09 83.7499C936.59 83.7499 935.31 83.2099 934.25 82.1499C933.18 81.0799 932.65 79.7999 932.65 78.2999ZM932.65 66.2299C932.65 64.7299 933.19 63.4599 934.25 62.3899C935.32 61.3199 936.6 60.7899 938.09 60.7899C939.58 60.7899 940.85 61.3199 941.88 62.3899C942.91 63.4599 943.43 64.7399 943.43 66.2299C943.43 67.7199 942.91 69.0099 941.88 70.0699C940.85 71.1399 939.59 71.6699 938.09 71.6699C936.59 71.6699 935.31 71.1399 934.25 70.0699C933.18 68.9999 932.65 67.7199 932.65 66.2299ZM932.65 54.1599C932.65 52.6699 933.17 51.3799 934.2 50.3099C935.23 49.2499 936.5 48.7099 937.99 48.7099C939.48 48.7099 940.77 49.2499 941.84 50.3099C942.9 51.3799 943.44 52.6599 943.44 54.1599C943.44 55.6599 942.9 56.9399 941.84 58.0099C940.77 59.0799 939.49 59.6099 937.99 59.6099C936.49 59.6099 935.23 59.0799 934.2 58.0099C933.17 56.9399 932.65 55.6599 932.65 54.1599ZM932.65 42.0899C932.65 40.5899 933.17 39.3099 934.2 38.2399C935.23 37.1699 936.5 36.6399 937.99 36.6399C939.48 36.6399 940.77 37.1699 941.84 38.2399C942.9 39.3099 943.44 40.5899 943.44 42.0899C943.44 43.5899 942.9 44.8499 941.84 45.8799C940.77 46.9099 939.49 47.4299 937.99 47.4299C936.49 47.4299 935.23 46.9099 934.2 45.8799C933.17 44.8499 932.65 43.5799 932.65 42.0899ZM932.54 29.9099C932.54 28.4099 933.08 27.1499 934.15 26.1199C935.21 25.0899 936.5 24.5699 937.99 24.5699C939.48 24.5699 940.77 25.0899 941.84 26.1199C942.9 27.1499 943.44 28.4099 943.44 29.9099C943.44 31.4099 942.9 32.6799 941.84 33.7499C940.77 34.8199 939.49 35.3499 937.99 35.3499C936.49 35.3499 935.21 34.8199 934.15 33.7499C933.08 32.6799 932.54 31.3999 932.54 29.9099ZM932.54 17.8399C932.54 16.3399 933.08 15.0799 934.15 14.0499C935.21 13.0199 936.5 12.4999 937.99 12.4999C939.48 12.4999 940.75 13.0199 941.78 14.0499C942.81 15.0799 943.33 16.3399 943.33 17.8399C943.33 19.3399 942.81 20.6199 941.78 21.6799C940.75 22.7499 939.49 23.2799 937.99 23.2799C936.49 23.2799 935.21 22.7499 934.15 21.6799C933.08 20.6099 932.54 19.3299 932.54 17.8399ZM918.55 53.9399C918.55 52.4399 919.09 51.1599 920.16 50.0999C921.22 49.0299 922.51 48.4899 924 48.4899C925.49 48.4899 926.76 49.0299 927.79 50.0999C928.82 51.1599 929.34 52.4499 929.34 53.9399C929.34 55.4299 928.82 56.6999 927.79 57.7299C926.76 58.7599 925.5 59.2799 924 59.2799C922.5 59.2799 921.22 58.7599 920.16 57.7299C919.09 56.6999 918.55 55.4399 918.55 53.9399ZM918.44 5.54986C918.44 4.05986 918.98 2.77986 920.04 1.70986C921.11 0.639863 922.39 0.109863 923.88 0.109863C925.37 0.109863 926.64 0.639863 927.67 1.70986C928.7 2.77986 929.22 4.05986 929.22 5.54986C929.22 7.03986 928.7 8.30986 927.67 9.33986C926.64 10.3699 925.37 10.8899 923.88 10.8899C922.39 10.8899 921.1 10.3699 920.04 9.33986C918.97 8.30986 918.44 7.04986 918.44 5.54986ZM904.88 53.9399C904.88 52.4399 905.41 51.1599 906.48 50.0999C907.55 49.0299 908.83 48.4899 910.32 48.4899C911.81 48.4899 913.1 49.0299 914.17 50.0999C915.24 51.1599 915.77 52.4499 915.77 53.9399C915.77 55.4299 915.24 56.7099 914.17 57.7799C913.1 58.8499 911.82 59.3799 910.32 59.3799C908.82 59.3799 907.54 58.8499 906.48 57.7799C905.41 56.7099 904.88 55.4299 904.88 53.9399ZM904.77 5.54986C904.77 4.05986 905.3 2.77986 906.37 1.70986C907.44 0.639863 908.72 0.109863 910.22 0.109863C911.72 0.109863 913 0.639863 914.06 1.70986C915.13 2.77986 915.66 4.05986 915.66 5.54986C915.66 7.03986 915.13 8.32986 914.06 9.39986C912.99 10.4599 911.71 10.9999 910.22 10.9999C908.73 10.9999 907.44 10.4599 906.37 9.39986C905.3 8.32986 904.77 7.04986 904.77 5.54986ZM890.67 54.2599C890.67 52.7699 891.19 51.4799 892.22 50.4199C893.25 49.3499 894.52 48.8199 896.01 48.8199C897.5 48.8199 898.79 49.3499 899.85 50.4199C900.92 51.4899 901.46 52.7699 901.46 54.2599C901.46 55.7499 900.92 57.0199 899.85 58.0499C898.79 59.0799 897.5 59.5999 896.01 59.5999C894.52 59.5999 893.25 59.0799 892.22 58.0499C891.19 57.0199 890.67 55.7599 890.67 54.2599ZM890.56 5.87986C890.56 4.37986 891.08 3.09986 892.11 2.03986C893.14 0.969863 894.4 0.429863 895.9 0.429863C897.4 0.429863 898.68 0.969863 899.74 2.03986C900.81 3.09986 901.34 4.38986 901.34 5.87986C901.34 7.36986 900.81 8.65986 899.74 9.71986C898.67 10.7899 897.39 11.3199 895.9 11.3199C894.41 11.3199 893.14 10.7899 892.11 9.71986C891.08 8.64986 890.56 7.36986 890.56 5.87986ZM876.67 78.1899C876.67 76.6999 877.21 75.4099 878.27 74.3399C879.34 73.2799 880.62 72.7399 882.12 72.7399C883.62 72.7399 884.9 73.2799 885.96 74.3399C887.03 75.4099 887.56 76.6899 887.56 78.1899C887.56 79.6899 887.02 80.9699 885.96 82.0299C884.89 83.0999 883.61 83.6299 882.12 83.6299C880.63 83.6299 879.34 83.0999 878.27 82.0299C877.2 80.9599 876.67 79.6799 876.67 78.1899ZM876.67 66.1199C876.67 64.6199 877.21 63.3399 878.27 62.2699C879.34 61.1999 880.62 60.6699 882.12 60.6699C883.62 60.6699 884.88 61.1999 885.91 62.2699C886.94 63.3399 887.46 64.6199 887.46 66.1199C887.46 67.6199 886.94 68.8799 885.91 69.9099C884.88 70.9399 883.61 71.4599 882.12 71.4599C880.63 71.4599 879.34 70.9399 878.27 69.9099C877.2 68.8799 876.67 67.6099 876.67 66.1199ZM876.67 54.0399C876.67 52.5499 877.19 51.2699 878.22 50.1999C879.25 49.1299 880.52 48.5999 882.01 48.5999C883.5 48.5999 884.79 49.1299 885.86 50.1999C886.93 51.2699 887.46 52.5499 887.46 54.0399C887.46 55.5299 886.92 56.7999 885.86 57.8299C884.79 58.8599 883.51 59.3799 882.01 59.3799C880.51 59.3799 879.25 58.8599 878.22 57.8299C877.19 56.7999 876.67 55.5299 876.67 54.0399ZM876.56 41.8699C876.56 40.3699 877.1 39.1099 878.16 38.0799C879.23 37.0499 880.51 36.5299 882 36.5299C883.49 36.5299 884.78 37.0499 885.85 38.0799C886.92 39.1099 887.45 40.3699 887.45 41.8699C887.45 43.3699 886.91 44.6499 885.85 45.7099C884.78 46.7799 883.5 47.3099 882 47.3099C880.5 47.3099 879.22 46.7799 878.16 45.7099C877.09 44.6399 876.56 43.3599 876.56 41.8699ZM876.56 29.7999C876.56 28.3099 877.1 27.0199 878.16 25.9599C879.23 24.8899 880.51 24.3599 882 24.3599C883.49 24.3599 884.78 24.8899 885.85 25.9599C886.92 27.0299 887.45 28.3099 887.45 29.7999C887.45 31.2899 886.91 32.5799 885.85 33.6499C884.78 34.7099 883.5 35.2499 882 35.2499C880.5 35.2499 879.22 34.7099 878.16 33.6499C877.09 32.5799 876.56 31.2999 876.56 29.7999ZM876.56 17.7299C876.56 16.2299 877.1 14.9499 878.16 13.8899C879.23 12.8199 880.51 12.2899 882 12.2899C883.49 12.2899 884.76 12.8199 885.79 13.8899C886.82 14.9599 887.34 16.2399 887.34 17.7299C887.34 19.2199 886.82 20.5099 885.79 21.5699C884.76 22.6399 883.49 23.1799 882 23.1799C880.51 23.1799 879.22 22.6399 878.16 21.5699C877.09 20.5099 876.56 19.2199 876.56 17.7299Z" fill="black"/>
<path d="M1015.65 54.16C1015.65 52.66 1016.17 51.38 1017.2 50.31C1018.23 49.25 1019.5 48.71 1020.99 48.71C1022.48 48.71 1023.77 49.25 1024.84 50.31C1025.9 51.38 1026.44 52.66 1026.44 54.16C1026.44 55.66 1025.9 56.94 1024.84 58C1023.77 59.07 1022.49 59.6 1020.99 59.6C1019.49 59.6 1018.23 59.07 1017.2 58C1016.17 56.93 1015.65 55.65 1015.65 54.16ZM1015.65 42.09C1015.65 40.6 1016.17 39.31 1017.2 38.24C1018.23 37.17 1019.5 36.64 1020.99 36.64C1022.48 36.64 1023.77 37.17 1024.84 38.24C1025.9 39.31 1026.44 40.59 1026.44 42.09C1026.44 43.59 1025.9 44.85 1024.84 45.88C1023.77 46.91 1022.49 47.43 1020.99 47.43C1019.49 47.43 1018.23 46.92 1017.2 45.88C1016.17 44.85 1015.65 43.58 1015.65 42.09ZM1015.54 29.91C1015.54 28.41 1016.08 27.15 1017.15 26.12C1018.21 25.09 1019.5 24.57 1020.99 24.57C1022.48 24.57 1023.77 25.09 1024.84 26.12C1025.9 27.15 1026.44 28.42 1026.44 29.91C1026.44 31.4 1025.9 32.68 1024.84 33.75C1023.77 34.82 1022.49 35.35 1020.99 35.35C1019.49 35.35 1018.21 34.82 1017.15 33.75C1016.08 32.68 1015.54 31.4 1015.54 29.91ZM1015.54 17.84C1015.54 16.34 1016.08 15.08 1017.15 14.05C1018.21 13.02 1019.5 12.5 1020.99 12.5C1022.48 12.5 1023.75 13.02 1024.78 14.05C1025.81 15.08 1026.33 16.34 1026.33 17.84C1026.33 19.34 1025.81 20.61 1024.78 21.68C1023.75 22.75 1022.49 23.28 1020.99 23.28C1019.49 23.28 1018.21 22.75 1017.15 21.68C1016.08 20.61 1015.54 19.33 1015.54 17.84ZM1015.54 5.76997C1015.54 4.27997 1016.06 2.98997 1017.09 1.92997C1018.12 0.859971 1019.39 0.329971 1020.88 0.329971C1022.37 0.329971 1023.66 0.859971 1024.73 1.92997C1025.8 2.99997 1026.33 4.27997 1026.33 5.76997C1026.33 7.25997 1025.79 8.54997 1024.73 9.61997C1023.66 10.68 1022.38 11.22 1020.88 11.22C1019.38 11.22 1018.12 10.68 1017.09 9.61997C1016.06 8.54997 1015.54 7.26997 1015.54 5.76997ZM1001.55 66.01C1001.55 64.51 1002.09 63.24 1003.16 62.17C1004.22 61.1 1005.51 60.57 1007 60.57C1008.49 60.57 1009.78 61.1 1010.85 62.17C1011.92 63.24 1012.45 64.52 1012.45 66.01C1012.45 67.5 1011.92 68.77 1010.85 69.8C1009.78 70.83 1008.5 71.35 1007 71.35C1005.5 71.35 1004.22 70.83 1003.16 69.8C1002.09 68.77 1001.55 67.5 1001.55 66.01ZM987.989 78.08C987.989 76.59 988.509 75.32 989.539 74.29C990.569 73.26 991.839 72.74 993.329 72.74C994.819 72.74 996.109 73.26 997.179 74.29C998.249 75.32 998.779 76.59 998.779 78.08C998.779 79.57 998.249 80.86 997.179 81.93C996.109 82.99 994.829 83.53 993.329 83.53C991.829 83.53 990.569 82.99 989.539 81.93C988.509 80.86 987.989 79.58 987.989 78.08ZM973.679 66.33C973.679 64.84 974.219 63.55 975.279 62.49C976.349 61.42 977.629 60.89 979.129 60.89C980.629 60.89 981.889 61.42 982.919 62.49C983.949 63.56 984.469 64.84 984.469 66.33C984.469 67.82 983.949 69.11 982.919 70.18C981.889 71.25 980.619 71.78 979.129 71.78C977.639 71.78 976.349 71.25 975.279 70.18C974.209 69.11 973.679 67.83 973.679 66.33ZM959.689 54.05C959.689 52.56 960.209 51.28 961.239 50.21C962.269 49.14 963.539 48.61 965.029 48.61C966.519 48.61 967.809 49.14 968.879 50.21C969.949 51.28 970.479 52.56 970.479 54.05C970.479 55.54 969.939 56.81 968.879 57.84C967.809 58.87 966.529 59.39 965.029 59.39C963.529 59.39 962.269 58.87 961.239 57.84C960.209 56.81 959.689 55.55 959.689 54.05ZM959.579 41.88C959.579 40.38 960.119 39.12 961.179 38.09C962.249 37.06 963.529 36.54 965.019 36.54C966.509 36.54 967.799 37.06 968.869 38.09C969.939 39.12 970.469 40.39 970.469 41.88C970.469 43.37 969.929 44.65 968.869 45.72C967.799 46.79 966.519 47.32 965.019 47.32C963.519 47.32 962.239 46.79 961.179 45.72C960.109 44.65 959.579 43.37 959.579 41.88ZM959.579 29.81C959.579 28.32 960.119 27.03 961.179 25.96C962.249 24.89 963.529 24.36 965.019 24.36C966.509 24.36 967.799 24.89 968.869 25.96C969.939 27.03 970.469 28.31 970.469 29.81C970.469 31.31 969.929 32.59 968.869 33.66C967.799 34.72 966.519 35.26 965.019 35.26C963.519 35.26 962.239 34.72 961.179 33.66C960.109 32.59 959.579 31.31 959.579 29.81ZM959.579 17.74C959.579 16.24 960.119 14.96 961.179 13.9C962.249 12.83 963.529 12.3 965.019 12.3C966.509 12.3 967.779 12.83 968.809 13.9C969.839 14.97 970.359 16.25 970.359 17.74C970.359 19.23 969.839 20.52 968.809 21.58C967.779 22.65 966.509 23.19 965.019 23.19C963.529 23.19 962.239 22.65 961.179 21.58C960.109 20.52 959.579 19.23 959.579 17.74ZM959.579 5.66997C959.579 4.16997 960.099 2.88997 961.129 1.82997C962.159 0.759971 963.429 0.219971 964.919 0.219971C966.409 0.219971 967.699 0.759971 968.769 1.82997C969.839 2.88997 970.369 4.17997 970.369 5.66997C970.369 7.15997 969.839 8.42997 968.769 9.45997C967.699 10.49 966.419 11.01 964.919 11.01C963.419 11.01 962.159 10.49 961.129 9.45997C960.099 8.42997 959.579 7.16997 959.579 5.66997Z" fill="black"/>
</svg>
